<?xml version="1.0" encoding="UTF-8"?>
<svg width="159" height="65" viewBox="0 0 159 65" xmlns="http://www.w3.org/2000/svg">
    <path id="lottie" fill="#ffffff" fill-rule="evenodd" stroke="none" d="M 156.902893 47.004181 C 155.07431 56.223213 151.112396 58.88987 147.683823 58.88987 C 141.360001 58.88987 138.160019 51.575607 138.160019 41.213692 L 138.160019 41.061321 L 158.274292 41.061321 C 158.274292 29.937485 154.083801 21.556561 145.16954 21.556561 C 136.102844 21.556561 130.769531 31.766068 130.769531 43.804161 C 130.769531 56.375584 136.179062 64.527954 144.788574 64.527954 C 151.95047 64.527954 157.131409 59.270828 158.7314 47.004181 Z M 145.16954 24.756546 C 149.66478 24.756546 150.959961 30.623222 150.959961 37.937485 L 138.23616 37.937485 C 138.693344 30.318447 140.598083 24.756546 145.16954 24.756546 Z M 117.817146 14.08989 C 120.636169 14.08989 122.693344 12.108936 122.693344 9.442284 C 122.693344 6.699406 120.636169 4.718452 117.817146 4.718452 C 114.921898 4.718452 112.864723 6.699406 112.864723 9.442284 C 112.864723 12.108936 114.921898 14.08989 117.817146 14.08989 Z M 122.083794 22.547035 L 120.788544 21.404152 L 109.588593 25.899391 L 110.274292 27.651791 C 114.693306 25.823208 114.769531 26.88987 114.769531 31.994625 L 114.769531 55.461292 C 114.769531 60.337494 114.007607 61.480339 109.360001 61.480339 L 109.360001 63.308922 L 127.493324 63.308922 L 127.493324 61.480339 C 122.845718 61.480339 122.083794 60.337494 122.083794 55.461292 Z M 104.712395 46.24226 C 104.712395 55.308922 103.036179 59.575607 99.607605 59.575607 C 96.026657 59.575607 95.340958 55.080368 95.340958 48.2994 L 95.340958 26.0518 L 104.331429 26.0518 L 104.331429 22.927998 L 95.188583 22.927998 L 95.188583 11.804195 L 92.445709 11.804195 C 91.683784 18.966091 88.179062 23.080368 82.617165 23.232738 L 82.617165 26.0518 L 87.95047 26.0518 L 87.95047 50.280354 C 87.95047 60.947006 91.07431 64.527954 97.017166 64.527954 C 104.483803 64.527954 106.845718 58.127983 106.845718 46.24226 Z M 78.426659 46.24226 C 78.426659 55.308922 76.750519 59.575607 73.321945 59.575607 C 69.740929 59.575607 69.055222 55.080368 69.055222 48.2994 L 69.055222 26.0518 L 78.0457 26.0518 L 78.0457 22.927998 L 68.902855 22.927998 L 68.902855 11.804195 L 66.159981 11.804195 C 65.398132 18.966091 61.89333 23.080368 56.331432 23.232738 L 56.331432 26.0518 L 61.664814 26.0518 L 61.664814 50.280354 C 61.664814 60.947006 64.788574 64.527954 70.731438 64.527954 C 78.198074 64.527954 80.559982 58.127983 80.559982 46.24226 Z M 37.740997 64.527954 C 48.026653 64.527954 54.121887 55.080368 54.121887 42.813683 C 54.121887 30.318447 47.569546 21.556561 37.740997 21.556561 C 27.379047 21.556561 21.360037 31.004181 21.360037 43.270828 C 21.360037 55.766068 27.836229 64.527954 37.740997 64.527954 Z M 38.883808 61.175598 C 32.179096 61.175598 28.97904 49.137505 28.97904 38.775589 C 28.97904 32.070843 31.188585 24.908916 36.598114 24.908916 C 43.302898 24.908916 46.426662 36.947006 46.426662 47.308922 C 46.426662 54.013706 44.293339 61.175598 38.883808 61.175598 Z M 13.360001 1.594688 L 12.21719 0.527954 L 0.636207 6.166077 L 1.398129 7.842289 C 5.969516 5.556522 5.969516 6.547035 5.969516 11.423237 L 5.969516 55.461292 C 5.969516 60.337494 5.207667 61.480339 0.560059 61.480339 L 0.560059 63.308922 L 18.693382 63.308922 L 18.693382 61.480339 C 14.045701 61.480339 13.360001 60.337494 13.360001 55.461292 Z"/>
</svg>
