<?xml version="1.0" encoding="UTF-8"?>
<svg width="87" height="39" viewBox="0 0 87 39" xmlns="http://www.w3.org/2000/svg">
    <path id="lottie" fill="#000000" fill-rule="evenodd" stroke="none" d="M 73.37207 32.008595 C 73.37207 34.764851 74.637238 36.255909 76.534981 36.255909 C 79.381569 36.255909 82.137825 32.867104 84.306702 28.167936 L 85.210335 28.167936 C 82.905937 34.041904 79.426765 38.244019 75.450546 38.244019 C 72.468361 38.244019 70.661018 35.939617 70.661018 32.098957 C 70.661018 24.869461 76.851242 13.30225 83.131866 13.30225 C 85.255539 13.30225 86.565903 14.748142 86.565903 16.871817 C 86.565903 21.57102 80.420807 26.496117 74.004654 27.535355 C 73.598 29.161974 73.37207 30.743429 73.37207 32.008595 Z M 44.815609 15.064468 L 40.297131 15.064468 L 34.287636 32.505611 C 34.061707 33.273758 33.745453 34.267796 33.745453 34.94558 C 33.745453 35.668526 33.926178 36.12038 34.69429 36.12038 C 36.817966 36.12038 39.529022 32.731541 41.336369 28.890882 L 42.330406 28.890882 C 40.477859 33.364124 36.998692 37.927727 33.474323 37.927727 C 31.757305 37.927727 31.124723 36.978855 31.124723 35.532963 C 31.124723 34.674454 31.44105 33.544849 31.757305 32.595978 L 37.766804 15.064468 L 34.197235 15.064468 L 34.558762 14.205959 C 38.444584 14.115631 39.845276 12.263012 41.652695 8.37719 L 42.691933 8.37719 L 40.658588 13.889704 L 45.177063 13.889704 L 44.815609 15.064468 Z M 53.988018 15.064468 L 58.50642 15.064468 L 58.867878 13.889704 L 54.349472 13.889704 L 56.382748 8.37719 L 55.34351 8.37719 C 53.536163 12.263012 52.135471 14.115631 48.249577 14.205959 L 47.888123 15.064468 L 51.457687 15.064468 L 45.448193 32.595978 C 45.131863 33.544849 44.815609 34.674454 44.815609 35.532963 C 44.815609 36.978855 45.448193 37.927727 47.165138 37.927727 C 50.689579 37.927727 54.168743 33.364124 56.021294 28.890882 L 55.027256 28.890882 C 53.219837 32.731541 50.508778 36.12038 48.385174 36.12038 C 47.616993 36.12038 47.436264 35.668526 47.436264 34.94558 C 47.436264 34.267796 47.752522 33.273758 47.978447 32.505611 L 53.988018 15.064468 Z M 59.229404 35.578163 C 59.229404 34.764851 59.590858 33.770779 59.952312 32.776741 L 64.696648 19.131054 C 65.103371 17.911055 65.600357 16.465162 65.600357 15.922979 C 65.600357 15.245197 65.3293 15.064468 64.922577 15.064468 C 63.386353 15.064468 61.081951 18.001453 59.545658 20.712511 L 58.596821 20.712511 C 60.449368 17.142944 63.521881 13.392649 66.368538 13.392649 C 67.543304 13.392649 68.130684 14.341488 68.130684 15.425924 C 68.130684 16.374834 67.769234 17.639999 67.181847 19.176254 L 62.392315 32.821903 C 62.166389 33.499687 61.804863 34.493725 61.804863 35.081142 C 61.804863 35.758888 61.985661 36.210743 62.708572 36.210743 C 64.561119 36.210743 66.639595 33.093033 68.175888 29.658993 L 69.124725 29.658993 C 67.543304 33.544849 64.696648 37.927727 61.624134 37.927727 C 59.861988 37.927727 59.229404 36.933689 59.229404 35.578163 Z M 84.351898 16.871817 C 84.351898 15.561523 83.990372 14.703014 82.725212 14.703014 C 79.24604 14.703014 75.902405 20.712511 74.320984 26.270187 C 79.607498 25.095387 84.351898 21.345093 84.351898 16.871817 Z M 71.293594 5.711334 C 71.293594 7.021626 70.435089 7.880135 69.124725 7.880135 C 67.769234 7.880135 66.865524 7.021626 66.865524 5.711334 C 66.865524 4.35577 67.769234 3.542458 69.124725 3.542458 C 70.435089 3.542458 71.293594 4.35577 71.293594 5.711334 Z M 29.949959 20.305857 C 29.949959 28.845682 23.398207 38.244019 17.34351 38.244019 C 13.99987 38.244019 12.102123 35.578163 12.102123 31.376011 C 12.102123 22.790985 18.608675 13.257122 24.618172 13.257122 C 27.961811 13.257122 29.949959 16.103706 29.949959 20.305857 Z M 6.996264 1.509182 C 11.334013 1.509182 12.463578 1.238056 13.367288 0.244019 L 13.909471 0.424747 L 3.426733 32.776741 C 3.200806 33.454487 2.929714 34.493725 2.929714 35.081142 C 2.929714 35.758888 3.110442 36.210743 3.833388 36.210743 C 5.685935 36.210743 7.719246 33.093033 9.300667 29.658993 L 10.249576 29.658993 C 8.668084 33.544849 5.776299 37.927727 2.703787 37.927727 C 0.941603 37.927727 0.309021 36.933689 0.309021 35.578163 C 0.309021 34.764851 0.625312 33.725613 0.941603 32.731541 L 9.797721 5.214279 C 10.520703 3.135803 10.068849 2.412823 6.725209 2.412823 L 6.996264 1.509182 Z M 14.722781 31.466375 C 14.722781 34.584087 15.67169 36.707764 18.06642 36.707764 C 22.223442 36.707764 27.329229 27.806446 27.329229 20.170292 C 27.329229 17.007416 26.289991 14.793343 23.895262 14.793343 C 19.738239 14.793343 14.722781 23.875423 14.722781 31.466375 Z"/>
</svg>
